<svg width="218" height="218" viewBox="0 0 218 218" fill="none" xmlns="http://www.w3.org/2000/svg">
<path d="M185.371 185.376C142.966 227.781 74.2107 227.781 31.8057 185.376C-10.5993 142.971 -10.5993 74.2107 31.8057 31.8057C74.2107 -10.5993 142.966 -10.5993 185.371 31.8057C227.771 74.2107 227.771 142.971 185.371 185.376Z" fill="#09ABF4"/>
<path d="M31.8027 185.372C74.2077 227.777 142.963 227.777 185.368 185.372C227.773 142.967 227.773 74.2116 185.368 31.8066L31.8027 185.372Z" fill="#09ABF4"/>
<path d="M31.8038 185.369C-10.6012 142.964 -10.6012 74.2088 31.8038 31.8038C74.2088 -10.6012 142.964 -10.6012 185.369 31.8038L31.8038 185.369Z" fill="url(#paint0_linear)"/>
<path d="M125.294 83.5416L51.5045 70.1716L47.3545 74.3216L104.199 106.952L125.294 83.5416Z" fill="#EEEEEE"/>
<path d="M136.364 94.6116L149.739 168.402L145.589 172.552L112.959 115.712L136.364 94.6116Z" fill="url(#paint1_linear)"/>
<path d="M87.1594 144.337C87.1594 144.337 163.009 72.1767 166.469 67.7967C168.774 64.8767 169.429 58.0717 169.609 53.8417C169.689 51.8417 168.064 50.2217 166.074 50.3067C161.844 50.4867 155.034 51.1417 152.119 53.4417C147.734 56.9017 75.5744 132.752 75.5744 132.752L55.4044 131.717L49.7544 137.362L72.3744 147.537L82.5494 170.157L88.2044 164.507L87.1594 144.337Z" fill="#EEEEEE"/>
<defs>
<linearGradient id="paint0_linear" x1="107.884" y1="103.384" x2="60.8837" y2="25.3837" gradientUnits="userSpaceOnUse">
<stop stop-color="#0E97DD"/>
<stop offset="0.5" stop-color="#1399DE"/>
<stop offset="1" stop-color="#199BDE"/>
</linearGradient>
<linearGradient id="paint1_linear" x1="137.849" y1="136.082" x2="123.849" y2="102.082" gradientUnits="userSpaceOnUse">
<stop stop-color="#D3D2D2"/>
<stop offset="0.5" stop-color="#C6C6CD"/>
<stop offset="1" stop-color="#B8B9C7"/>
</linearGradient>
</defs>
</svg>
